<?xml version="1.0" encoding="utf-8"?>
<!-- Generator: Adobe Illustrator 14.0.0, SVG Export Plug-In . SVG Version: 6.00 Build 43363)  -->
<!DOCTYPE svg PUBLIC "-//W3C//DTD SVG 1.1//EN" "http://www.w3.org/Graphics/SVG/1.1/DTD/svg11.dtd">
<svg version="1.1" id="Layer_1" xmlns="http://www.w3.org/2000/svg" xmlns:xlink="http://www.w3.org/1999/xlink" x="0px" y="0px"
	 width="612px" height="792px" viewBox="0 0 612 792" enable-background="new 0 0 612 792" xml:space="preserve">
<g>
	<polygon fill-rule="evenodd" clip-rule="evenodd" fill="#FFFFFF" points="209,300 401.756,300 401.756,492.756 209,492.756 
		209,300 	"/>
	<path fill-rule="evenodd" clip-rule="evenodd" fill="#103955" d="M229.937,369.709c0,1.106-0.738,1.722-2.213,1.722h-1.476v-3.32
		h1.599C229.199,368.111,229.937,368.726,229.937,369.709L229.937,369.709z M233.011,375.735c0-2.091-1.23-3.32-3.197-3.443
		c0.983,0,1.475-0.246,2.09-0.983c0.492-0.492,0.738-1.23,0.738-1.968c0-0.861-0.369-1.844-0.984-2.336
		c-0.738-0.738-1.599-0.861-3.32-0.861h-4.673v13.035h5.288C231.535,379.178,233.011,377.948,233.011,375.735L233.011,375.735z
		 M230.306,375.366c0,0.737-0.369,1.352-0.984,1.598c-0.369,0.123-0.738,0.246-1.476,0.246h-1.599v-3.689h1.599
		C229.445,373.521,230.306,374.259,230.306,375.366L230.306,375.366z"/>
	<path fill-rule="evenodd" clip-rule="evenodd" fill="#103955" d="M240.143,372.784c-0.246-0.246-0.492-0.246-0.738-0.246
		c-0.369,0-0.738,0.246-1.107,0.615c-0.492,0.615-0.615,1.107-0.615,1.845v4.181h-2.459v-9.223h2.091l0.123,1.968
		c0.86-1.476,1.475-2.09,2.213-2.09c0.492,0,0.861,0.246,1.23,0.615L240.143,372.784L240.143,372.784z"/>
	<path fill-rule="evenodd" clip-rule="evenodd" fill="#103955" d="M246.783,376.841c-0.246,0.246-0.369,0.369-0.615,0.492
		s-0.615,0.246-0.984,0.246c-0.492,0-0.86-0.369-0.86-0.983c0-0.246,0-0.369,0.123-0.738l2.336-0.738V376.841L246.783,376.841z
		 M249.98,377.457c-0.615,0-0.738-0.123-0.738-0.984v-3.812c0-2.09-0.983-2.951-3.197-2.951c-2.583,0-3.935,0.861-3.935,2.582
		c0,0.246,0,0.369,0.123,0.615l2.214-0.492c0-0.123,0-0.123,0-0.246c0-0.492,0.492-0.861,1.229-0.861s1.106,0.492,1.106,1.476v0.738
		l-2.582,0.738c-1.353,0.492-1.845,0.861-2.214,1.722c-0.123,0.246-0.123,0.615-0.123,0.983c0,1.353,1.106,2.459,2.705,2.459
		c0.861,0,1.599-0.369,2.459-1.106c0.492,0.738,0.861,0.983,2.09,0.983h0.492L249.98,377.457L249.98,377.457z"/>
	<path fill-rule="evenodd" clip-rule="evenodd" fill="#103955" d="M253.424,368.234c-0.738,0-1.353-0.738-1.353-1.599
		s0.615-1.599,1.353-1.599c0.737,0,1.353,0.738,1.353,1.599S254.161,368.234,253.424,368.234L253.424,368.234z M252.194,369.955
		h2.459v9.223h-2.459V369.955L252.194,369.955z"/>
	<path fill-rule="evenodd" clip-rule="evenodd" fill="#103955" d="M263.384,379.178v-5.903c0-1.229-0.246-1.599-0.861-1.599
		c-0.492,0-1.107,0.492-2.213,1.599l-0.246,0.369v5.534h-2.336v-9.223h2.336v1.476c1.106-1.107,1.967-1.599,3.197-1.599
		c1.599,0,2.459,0.86,2.459,2.582v6.764H263.384L263.384,379.178z"/>
	<path fill-rule="evenodd" clip-rule="evenodd" fill="#103955" d="M230.183,396.147c0,1.353-0.738,1.968-2.336,1.968h-1.599v-3.689
		h1.599C229.445,394.426,230.183,394.918,230.183,396.147L230.183,396.147z M233.257,405.371l-3.32-5.535
		c1.107-0.367,1.599-0.613,2.09-1.229c0.492-0.615,0.738-1.477,0.738-2.46c0-1.229-0.369-2.213-1.106-2.828
		c-0.738-0.738-1.599-0.984-3.566-0.984h-4.304v13.036h2.459v-5.166h1.229l2.952,5.166H233.257L233.257,405.371z"/>
	<path fill-rule="evenodd" clip-rule="evenodd" fill="#103955" d="M240.143,399.713h-3.689c0.246-1.229,0.984-1.967,1.967-1.967
		C239.528,397.746,240.02,398.238,240.143,399.713L240.143,399.713z M242.479,404.51l-0.861-1.844
		c-0.861,0.613-1.229,0.736-1.722,0.982c-0.492,0.123-0.738,0.123-1.107,0.123c-0.86,0-1.721-0.492-2.09-1.105
		c-0.246-0.369-0.246-0.738-0.369-1.477h6.148v-0.984c0-2.582-1.599-4.303-3.812-4.303c-2.706,0-4.673,2.213-4.673,5.165
		c0,2.828,1.721,4.551,4.427,4.551c1.107,0,2.09-0.123,3.074-0.615C241.742,404.879,241.987,404.756,242.479,404.51L242.479,404.51z
		"/>
	<path fill-rule="evenodd" clip-rule="evenodd" fill="#103955" d="M250.595,398.73c-0.246-0.123-0.492-0.246-0.615-0.369
		c-0.615-0.369-1.476-0.615-2.09-0.615c-0.984,0-1.599,0.369-1.599,0.861c0,0.369,0.369,0.615,1.229,0.984
		c0.984,0.367,2.336,0.982,2.706,1.229c0.615,0.369,0.983,1.23,0.983,2.09c0,1.6-1.476,2.707-3.689,2.707
		c-0.492,0-0.984,0-1.476-0.123c-0.861-0.123-1.353-0.369-2.336-0.861l0.738-1.967c0.983,0.613,1.352,0.859,1.967,0.982
		c0.369,0.123,0.738,0.246,1.106,0.246c0.861,0,1.476-0.369,1.476-0.861c0-0.367-0.369-0.736-0.983-0.982l-1.599-0.492
		c-1.599-0.615-2.336-1.6-2.336-2.828c0-1.723,1.476-2.829,3.689-2.829c0.492,0,0.984,0,1.599,0.123
		c0.861,0.246,1.106,0.369,1.967,0.86L250.595,398.73L250.595,398.73z"/>
	<path fill-rule="evenodd" clip-rule="evenodd" fill="#103955" d="M258.958,399.713h-3.566c0.246-1.229,0.984-1.967,1.967-1.967
		C258.465,397.746,258.958,398.238,258.958,399.713L258.958,399.713z M261.417,404.51l-0.861-1.844
		c-0.86,0.613-1.229,0.736-1.844,0.982c-0.369,0.123-0.738,0.123-0.984,0.123c-0.984,0-1.722-0.492-2.09-1.105
		c-0.246-0.369-0.246-0.738-0.369-1.477h6.148v-0.984c0-2.582-1.599-4.303-3.935-4.303c-2.582,0-4.55,2.213-4.55,5.165
		c0,2.828,1.722,4.551,4.427,4.551c1.107,0,2.091-0.123,3.075-0.615C260.679,404.879,260.925,404.756,261.417,404.51L261.417,404.51
		z"/>
	<path fill-rule="evenodd" clip-rule="evenodd" fill="#103955" d="M267.811,403.156c-0.369,0.246-0.492,0.246-0.615,0.369
		c-0.369,0.246-0.615,0.246-0.984,0.246c-0.615,0-0.984-0.369-0.984-0.861c0-0.244,0.123-0.49,0.246-0.859l2.336-0.738V403.156
		L267.811,403.156z M270.885,403.771c-0.615-0.123-0.738-0.246-0.738-1.105v-3.813c0-1.969-0.984-2.952-3.197-2.952
		c-2.459,0-3.935,0.983-3.935,2.583c0,0.246,0.123,0.369,0.123,0.615l2.336-0.492c-0.123-0.123-0.123-0.123-0.123-0.246
		c0-0.369,0.615-0.738,1.353-0.738c0.738,0,1.106,0.369,1.106,1.354v0.859l-2.583,0.738c-1.353,0.369-1.967,0.861-2.213,1.6
		c-0.123,0.369-0.246,0.615-0.246,0.982c0,1.477,1.106,2.461,2.705,2.461c0.984,0,1.722-0.246,2.583-1.107
		c0.369,0.861,0.86,0.984,1.967,0.984h0.492L270.885,403.771L270.885,403.771z"/>
	<path fill-rule="evenodd" clip-rule="evenodd" fill="#103955" d="M277.648,398.977c-0.246-0.123-0.492-0.246-0.738-0.246
		c-0.369,0-0.861,0.246-1.107,0.738c-0.492,0.49-0.737,0.982-0.737,1.721v4.182h-2.337v-9.224h2.091l0.123,2.091
		c0.86-1.599,1.476-2.213,2.09-2.213c0.492,0,0.984,0.246,1.353,0.738L277.648,398.977L277.648,398.977z"/>
	<path fill-rule="evenodd" clip-rule="evenodd" fill="#103955" d="M286.502,405.125c-0.861,0.369-1.845,0.492-2.706,0.492
		c-2.828,0-4.673-1.846-4.673-4.674c0-2.951,1.968-5.042,4.919-5.042c0.492,0,0.984,0.123,1.476,0.246
		c0.615,0.123,0.984,0.246,1.722,0.737l-1.107,1.723c-0.738-0.492-1.106-0.615-1.844-0.615c-1.599,0-2.706,1.107-2.706,2.951
		c0,1.6,0.984,2.705,2.459,2.705c0.738,0,1.353-0.246,2.336-0.738l0.861,1.846C286.871,405.002,286.625,405.002,286.502,405.125
		L286.502,405.125z"/>
	<path fill-rule="evenodd" clip-rule="evenodd" fill="#103955" d="M294.864,405.371v-5.902c0-1.107-0.123-1.477-0.738-1.477
		c-0.492,0-1.229,0.492-2.213,1.6l-0.369,0.244v5.535h-2.336v-14.388h2.336v6.763c1.23-1.229,2.09-1.721,3.197-1.721
		c1.722,0,2.583,0.86,2.583,2.583v6.764H294.864L294.864,405.371z"/>
	<path fill-rule="evenodd" clip-rule="evenodd" fill="#103955" d="M233.257,421.602c-0.861-0.613-1.845-0.982-2.951-0.982
		c-2.583,0-4.304,1.844-4.304,4.303c0,2.828,1.844,4.674,4.672,4.674c0.984,0,1.722-0.123,2.829-0.615l0.492,2.09
		c-0.861,0.369-1.107,0.492-1.722,0.615s-1.353,0.246-2.09,0.246c-2.091,0-3.566-0.492-4.796-1.6
		c-1.353-1.229-2.213-3.195-2.213-5.287c0-1.844,0.738-3.566,2.09-4.918c1.23-1.23,2.705-1.723,4.919-1.723
		c1.598,0,2.951,0.369,4.058,1.23L233.257,421.602L233.257,421.602z"/>
	<path fill-rule="evenodd" clip-rule="evenodd" fill="#103955" d="M241.127,425.906h-3.566c0.246-1.23,0.861-1.967,1.968-1.967
		C240.635,423.939,241.127,424.553,241.127,425.906L241.127,425.906z M243.586,430.824l-0.983-1.844
		c-0.738,0.492-1.107,0.738-1.722,0.861c-0.369,0.123-0.738,0.123-1.107,0.123c-0.861,0-1.599-0.369-1.967-1.107
		c-0.246-0.369-0.369-0.615-0.369-1.477h6.148v-0.982c0-2.459-1.599-4.182-3.935-4.182c-2.582,0-4.55,2.213-4.55,5.041
		c0,2.83,1.722,4.674,4.427,4.674c1.106,0,2.09-0.246,3.074-0.615C242.725,431.193,243.094,431.07,243.586,430.824L243.586,430.824z
		"/>
	<path fill-rule="evenodd" clip-rule="evenodd" fill="#103955" d="M251.333,431.686v-5.902c0-1.23-0.123-1.598-0.738-1.598
		c-0.492,0-1.229,0.49-2.213,1.598l-0.369,0.369v5.533h-2.336v-9.223h2.336v1.477c1.106-1.107,2.09-1.723,3.197-1.723
		c1.722,0,2.583,0.984,2.583,2.705v6.764H251.333L251.333,431.686z"/>
	<path fill-rule="evenodd" clip-rule="evenodd" fill="#103955" d="M260.31,431.316c-0.615,0.369-1.353,0.615-1.968,0.615
		c-1.229,0-1.844-0.615-1.844-1.967v-5.779h-1.353v-1.477l1.353-0.246v-2.705h2.213v2.705h1.967v1.723h-1.967v4.057
		c0,1.107,0.123,1.354,0.492,1.354c0.246,0,0.615-0.123,1.23-0.492l0.737,1.721C260.925,430.947,260.556,431.193,260.31,431.316
		L260.31,431.316z"/>
	<path fill-rule="evenodd" clip-rule="evenodd" fill="#103955" d="M268.057,425.291c-0.246-0.246-0.492-0.246-0.738-0.246
		c-0.369,0-0.738,0.246-1.107,0.615c-0.492,0.615-0.615,1.107-0.615,1.844v4.182h-2.459v-9.223h2.09l0.123,1.967
		c0.861-1.475,1.476-2.09,2.213-2.09c0.492,0,0.861,0.246,1.23,0.615L268.057,425.291L268.057,425.291z"/>
	<path fill-rule="evenodd" clip-rule="evenodd" fill="#103955" d="M275.189,425.906h-3.566c0.123-1.23,0.861-1.967,1.968-1.967
		C274.697,423.939,275.189,424.553,275.189,425.906L275.189,425.906z M277.648,430.824l-0.984-1.844
		c-0.738,0.492-1.106,0.738-1.721,0.861c-0.369,0.123-0.738,0.123-1.107,0.123c-0.861,0-1.599-0.369-2.09-1.107
		c-0.123-0.369-0.246-0.615-0.246-1.477h6.148v-0.982c0-2.459-1.599-4.182-3.935-4.182c-2.583,0-4.55,2.213-4.55,5.041
		c0,2.83,1.722,4.674,4.427,4.674c1.106,0,2.09-0.246,2.951-0.615C276.788,431.193,277.157,431.07,277.648,430.824L277.648,430.824z
		"/>
	<path fill-rule="evenodd" clip-rule="evenodd" fill="#103955" d="M321.794,386.679c-0.983,0-1.721,0.861-1.721,1.844
		c0,0.861,0.737,1.722,1.721,1.722c0.984,0,1.722-0.861,1.722-1.722C323.516,387.54,322.778,386.679,321.794,386.679
		L321.794,386.679z"/>
	<path fill-rule="evenodd" clip-rule="evenodd" fill="#103955" d="M371.228,366.02c1.476,1.968,3.689,5.165,4.551,9.223l1.106,5.779
		v0.123c0.245,1.107,0.491,2.459,0.491,3.566l0.123,0.123c0.123,1.476-0.737,2.09-0.983,2.583c0,0-0.123,0-0.246,0.123
		c-0.246,0.246-0.246,0.615-0.246,0.86c0,0.246,0.123,0.615,0.246,0.738l5.042,8.238c0.86,1.354,1.229,2.459,1.229,3.443
		c0,0.369,0,0.861-0.246,1.23c-0.492,1.229-1.722,1.844-3.197,2.459c-0.491,0.246-0.86,0.369-0.983,0.615
		c0.123,0.123,0.246,0.369,0.246,0.369c0.614,0.982,0.983,1.721,0.983,2.459c0,0.736-0.492,1.475-0.86,2.213
		c0.123,0.369,0.368,0.738,0.491,1.23c0.123,0.246,0.123,0.49,0.123,0.736c0,0.984-0.614,1.846-0.983,2.461l-0.492,0.49
		c-0.123,0.246-0.614,0.615-0.614,0.861c0,0.123,0,1.107,0,1.107c0.245,1.475,0.368,2.951,0.368,4.059c0,0.613,0,1.105-0.123,1.475
		c-0.368,1.844-2.09,5.041-9.1,5.041h-0.491c-3.566,0-4.796,0.123-5.288,0.738c-0.492,0.492-0.983,1.846-1.599,3.32h26.808V366.02
		H371.228L371.228,366.02z"/>
	<path fill-rule="evenodd" clip-rule="evenodd" fill="#103955" d="M349.585,358.273c0,1.23-0.983,2.091-2.213,2.091
		s-2.214-0.861-2.214-2.091c0-1.229,0.984-2.213,2.214-2.213S349.585,357.043,349.585,358.273L349.585,358.273z"/>
	<path fill-rule="evenodd" clip-rule="evenodd" fill="#103955" d="M359.669,367.742c-2.582,0-4.796-2.214-4.796-4.919
		c0-2.705,2.214-4.795,4.796-4.795c2.705,0,4.919,2.09,4.919,4.795C364.588,365.528,362.374,367.742,359.669,367.742
		L359.669,367.742z"/>
	<path fill-rule="evenodd" clip-rule="evenodd" fill="#103955" d="M337.165,382.252c-5.902-0.123-10.698-5.042-10.575-10.944
		c0-6.026,4.919-10.821,10.944-10.698l0,0c5.902,0.123,10.698,5.042,10.575,10.944C347.986,377.579,343.068,382.252,337.165,382.252
		L337.165,382.252z M352.291,355.322L352.291,355.322L352.291,355.322L352.291,355.322z"/>
	<path fill-rule="evenodd" clip-rule="evenodd" fill="#103955" d="M361.514,398.115c0-0.984-0.861-1.722-1.722-1.722
		c-0.984,0-1.845,0.737-1.845,1.722s0.86,1.721,1.845,1.721C360.652,399.836,361.514,399.1,361.514,398.115L361.514,398.115z"/>
	<path fill-rule="evenodd" clip-rule="evenodd" fill="#103955" d="M335.567,407.707c0,0.982,0.737,1.721,1.721,1.721
		c0.984,0,1.722-0.738,1.722-1.721c0-0.984-0.737-1.723-1.722-1.723C336.305,405.984,335.567,406.723,335.567,407.707
		L335.567,407.707z"/>
	<path fill-rule="evenodd" clip-rule="evenodd" fill="#103955" d="M357.947,388.523c0,0.861,0.86,1.722,1.845,1.722
		c0.86,0,1.722-0.861,1.722-1.722c0-0.983-0.861-1.844-1.722-1.844C358.808,386.679,357.947,387.54,357.947,388.523L357.947,388.523
		z"/>
	<path fill-rule="evenodd" clip-rule="evenodd" fill="#103955" d="M343.683,398.115c0,2.09,1.722,3.689,3.813,3.689
		c2.09,0,3.688-1.6,3.688-3.689c0-2.09-1.599-3.812-3.688-3.812C345.404,394.303,343.683,396.025,343.683,398.115L343.683,398.115z"
		/>
	<path fill-rule="evenodd" clip-rule="evenodd" fill="#103955" d="M379.098,398.73l-5.042-8.239
		c-0.245-0.369-0.368-0.738-0.491-1.23h-10.698l0,0c-0.369,1.353-1.599,2.336-3.074,2.336c-1.845,0-3.197-1.353-3.197-3.197
		c0-1.721,1.353-3.074,3.197-3.074c1.476,0,2.828,1.106,3.074,2.459h10.575c0.123-0.492,0.123-0.983,0.491-1.476
		c0.246-0.246,0.369-0.492,0.369-0.492c0.369-0.369,0.492-0.738,0.492-0.984c0-0.369-0.123-1.229-0.492-3.197v-0.246l-1.106-5.656
		c-0.86-4.181-3.443-7.378-4.919-8.977l-0.491-0.738h-1.722c-1.229,2.337-3.566,3.935-6.271,3.935c-2.828,0-5.165-1.598-6.271-3.935
		h-4.427c0.737,1.599,1.106,3.443,1.106,5.411v0.123c0,2.582-0.737,4.918-2.091,6.886v14.018c1.354,0.123,2.583,0.615,3.443,1.599
		c0.861,0.984,1.353,2.09,1.599,3.32h3.566c0.246-1.352,1.599-2.459,3.074-2.459c1.722,0,3.197,1.476,3.197,3.197
		c0,1.844-1.476,3.197-3.197,3.197c-1.599,0-2.828-0.984-3.074-2.459h-3.566c-0.246,1.229-0.737,2.459-1.722,3.32
		c-1.106,1.105-2.582,1.721-4.058,1.598c-1.476,0-2.951-0.615-4.059-1.721c-0.86-0.861-1.353-1.969-1.476-3.197h-3.812v5.779
		c1.353,0.369,2.459,1.598,2.459,3.074c0,1.721-1.476,3.197-3.197,3.197c-1.721,0-3.196-1.477-3.196-3.197
		c0-1.477,1.106-2.828,2.459-3.074v-5.779h-10.207v-1.477h10.207v-4.18h1.476v4.18h3.689c0.368-2.582,2.336-4.549,4.918-4.918
		v-12.174c-2.459,2.459-5.779,4.058-9.469,4.058c-7.132-0.123-12.788-6.025-12.788-13.158c0.123-1.845,0.491-3.566,1.229-5.165
		h-3.074v10.821h-1.476V366.02h-2.337c-3.442,4.304-4.918,9.469-4.673,15.249c0.492,12.912,9.961,22.872,11.683,34.677
		c0.737,4.674-1.845,9.838-4.919,15.74h37.137c0.615-1.844,1.599-3.936,2.336-4.918c1.23-1.723,3.074-1.723,7.379-1.723h0.369
		c3.935-0.123,6.271-1.229,6.64-3.074c0.246-0.859-0.123-3.443-0.246-4.672l-0.123-1.477c0-1.105,0.861-1.967,1.477-2.582
		l0.245-0.246c0.123-0.246,0.492-0.615,0.492-0.861c-0.123-0.367-0.492-1.105-0.737-1.475l-0.492-0.738l0.614-0.738
		c0.369-0.369,0.615-0.982,0.738-1.229c-0.123-0.246-0.369-0.861-0.615-1.107c-0.491-0.738-0.737-1.352-0.737-1.844
		c0-1.477,1.599-2.336,2.828-2.951c0.983-0.492,1.599-0.738,1.722-1.107c0.123,0,0.123-0.123,0.123-0.246
		C379.959,400.328,379.59,399.592,379.098,398.73L379.098,398.73z M358.931,378.44h1.476v4.672h-1.476V378.44L358.931,378.44z
		 M362.251,372.046c-0.491,0.983-1.968,3.32-2.459,4.304c-0.615-0.983-1.968-3.32-2.582-4.304
		C358.316,372.046,361.145,372.046,362.251,372.046L362.251,372.046z M354.381,391.106c-0.983-0.615-3.442-1.967-4.427-2.583
		c0.984-0.615,3.443-1.967,4.427-2.459C354.381,387.171,354.381,389.876,354.381,391.106L354.381,391.106z M339.748,386.679
		c-0.492,0.983-1.968,3.443-2.46,4.304c-0.614-0.861-1.967-3.32-2.582-4.304C335.813,386.679,338.642,386.679,339.748,386.679
		L339.748,386.679z M321.794,378.932c0.615,0.983,1.968,3.443,2.583,4.427c-1.107,0-3.936,0-5.042,0
		C319.827,382.375,321.303,379.916,321.794,378.932L321.794,378.932z M321.794,391.721c-1.721,0-3.197-1.476-3.197-3.197
		c0-1.844,1.477-3.197,3.197-3.197c1.722,0,3.197,1.353,3.197,3.197C324.991,390.245,323.516,391.721,321.794,391.721
		L321.794,391.721z M346.634,412.379h1.476v6.395h-1.476V412.379L346.634,412.379z M347.249,410.289
		c-0.492-0.984-1.968-3.443-2.46-4.428c1.107,0,3.936,0,5.042,0C349.217,406.846,347.863,409.305,347.249,410.289L347.249,410.289z
		 M365.202,400.697c0-1.105,0-3.935,0-5.042c0.984,0.492,3.32,1.967,4.304,2.459C368.522,398.73,366.187,400.082,365.202,400.697
		L365.202,400.697z"/>
</g>
</svg>
